<?xml version="1.0" encoding="utf-8"?>
<!-- Generator: Adobe Illustrator 27.5.0, SVG Export Plug-In . SVG Version: 6.00 Build 0)  -->
<svg version="1.1" xmlns="http://www.w3.org/2000/svg" xmlns:xlink="http://www.w3.org/1999/xlink" x="0px" y="0px"
	 viewBox="0 0 1270 1270" style="enable-background:new 0 0 1270 1270;" xml:space="preserve">
<g id="background">
	<g>
		<g>
			<rect x="0.458" y="0.458" style="fill:none;" width="1270" height="1270"/>
		</g>
	</g>
</g>
<g id="shadow">
</g>
<g id="object">
	<g>
		<g>
			<path style="fill:#84A599;" d="M814.31,86.075H472.841c-1.316,0-2.382,1.162-2.382,2.596v259.05c0,1.434,1.067,2.596,2.382,2.596
				h77.181l52.971,74.318c1.547,2.171,4.968,1.105,5.008-1.561l1.086-72.757h133.495c40.93,0,74.111-36.153,74.111-80.751V88.671
				C816.693,87.238,815.626,86.075,814.31,86.075z"/>
			<g>
				<rect x="559.274" y="129.305" style="fill:#FFFFF3;" width="212.702" height="8.863"/>
				<rect x="518.285" y="196.882" style="fill:#FFFFF3;" width="253.691" height="8.863"/>
				<rect x="518.285" y="264.459" style="fill:#FFFFF3;" width="253.691" height="8.863"/>
			</g>
		</g>
		<g>
			<path style="fill:#CBD9A4;" d="M1028.514,288.636c0-45.385-52.122-82.177-116.418-82.177
				c-64.296,0-116.418,36.792-116.418,82.177c0,45.385,52.122,82.177,116.418,82.177c3.314,0,6.593-0.103,9.837-0.295
				l-10.815,58.993l65.021-72.246C1007.691,342.564,1028.514,317.318,1028.514,288.636z"/>
			<g>
				<path style="fill:#F1EFE2;" d="M974.203,291.244c-6.715,0-6.726,10.435,0,10.435
					C980.918,301.68,980.929,291.244,974.203,291.244z"/>
				<path style="fill:#F1EFE2;" d="M927.245,291.244c-6.715,0-6.726,10.435,0,10.435
					C933.959,301.68,933.971,291.244,927.245,291.244z"/>
				<path style="fill:#F1EFE2;" d="M868.547,291.244c-6.715,0-6.726,10.435,0,10.435
					C875.261,301.68,875.273,291.244,868.547,291.244z"/>
			</g>
		</g>
		<g>
			<g>
				<polygon style="fill:#3A3029;" points="194.818,1170.257 191.788,1182.986 214.215,1201.774 229.973,1192.075 220.275,1176.317 
					197.848,1157.529 				"/>
				<polygon style="fill:#59595B;" points="246.291,776.513 237.089,815.169 248.756,994.951 194.462,1165.838 218.508,1176.898 
					327.295,979.607 340.214,916.584 346.783,783.342 				"/>
			</g>
			<g>
				<polygon style="fill:#59595B;" points="396.983,791.841 398.914,958.844 367.444,1174.17 343.245,1174.17 327.961,975.487 
					294.848,776.803 				"/>
				<polygon style="fill:#3A3029;" points="343.384,1184.374 369.552,1197.458 382.637,1184.374 369.552,1171.29 343.384,1171.29 
									"/>
			</g>
			<g>
				<polygon style="fill:#EACDB0;" points="460.939,744.774 470.194,754.458 482.005,754.541 483.259,757.052 480.229,758.721 
					490.014,761.596 494.642,768.458 490.793,778.778 481.103,784.743 471.261,779.835 464.048,768.925 450.807,756.218 				"/>
				<path style="fill:#6A8478;" d="M452.798,766.917c-11.323-8.222-22.647-16.443-33.97-24.665
					c-17.126-12.435-32.323-26.389-49.027-39.258c-0.725-0.559-1.51-1.22-1.603-2.13c-0.061-0.594,0.193-1.171,0.441-1.714
					c1.331-2.906,2.692-5.798,4.082-8.677c3.008-6.229,6.091-12.452,9.445-18.505c3.135-5.658,2.716-7.147,8.072-4.611
					c3.307,1.565,6.804,6.659,9.41,9.209c9.97,9.757,19.94,19.513,29.91,29.27c14.801,14.484,29.601,28.968,44.402,43.452
					L452.798,766.917z"/>
			</g>
			<path style="fill:#6A8478;" d="M217.505,823.785c-0.334,15.237,0.145,35.771,5.999,36.522c1.097,0.141,2.149-0.401,3.107-0.925
				c10.122-5.526,17.284-13.305,27.261-18.644c10.458-5.596,22.421-8.57,34.153-10.652c17.544-3.206,35.475-5.194,53.35-5.506
				c14.052-0.245,28.17,0.952,42.162,2.116c11.641,0.969,22.473,4.419,34.332,3.597c12.155-0.843,24.128-4.566,34.518-10.952
				c0.38-0.234,0.783-0.5,0.941-0.918c0.173-0.457,0.005-0.965-0.163-1.423c-2.482-6.804-4.267-13.541-8.775-19.175
				c-5.035-6.292-8.613-14.286-12.252-21.448c-7.585-14.926-14.727-30.57-20.028-46.471c-4.384-11.831-8.602-23.788-12.285-35.858
				c-1.676-5.493-3.177-11.078-4.826-16.642c-1.632-5.51-4.667-12.678-4.667-18.445c0-23.176-20.794-40.61-34.324-57.543
				c-4.067-5.09-8.407-10.388-14.454-12.815c-4.143-1.663-8.715-1.813-13.178-1.941c-13.538-0.389-27.076-0.778-40.615-1.167
				c-4.935-0.142-10.069-0.246-14.568,1.787c-6.742,3.047-10.553,10.128-13.885,16.734c-14.94,29.622-24.464,61.56-29.8,94.495
				c-2.785,17.197-5.362,34.428-7.368,51.723c-2.238,19.301-3.775,38.688-4.099,58.107
				C218.005,810.501,217.663,816.545,217.505,823.785z"/>
			<path style="fill:#FFFFFF;" d="M307.837,660.392c0.509,7.671-0.585,15.349-1.676,22.962
				c-6.646,46.368-13.293,92.736-19.939,139.104c36.351-0.316,72.703-0.633,109.054-0.949c-1.316-17.373-2.633-34.746-3.949-52.119
				c-0.844-11.137-1.693-22.314-4.044-33.244c-3.793-17.63-11.401-34.224-18.956-50.661c-13.959-30.371-27.919-60.741-41.878-91.112
				c-0.747-1.624-1.533-3.302-2.909-4.471c-1.647-1.4-3.897-1.869-6.048-2.243c-10.392-1.805-22.125-3.332-32.568-1.8
				c-2.611,9.506,7.02,26.033,10.589,34.876C300.707,633.604,306.906,646.377,307.837,660.392z"/>
			<g>
				<path style="fill:#EACDB0;" d="M314.546,594.257c-7.535-0.327-15.069-0.654-22.604-0.982
					c-0.406-6.001-0.332-12.034,0.222-18.023c-6.368-1.849-13.767-4.742-15.218-11.213c-0.457-2.038-0.218-4.16,0.023-6.234
					c0.997-8.576,1.993-17.152,2.99-25.728c0.345-2.966,0.717-6.021,2.175-8.627c2.559-4.573,7.893-6.807,12.998-7.988
					c13.028-3.013,27.52-0.959,38.197,7.091c2.842,2.142,5.449,4.763,6.831,8.042c2.131,5.056,1.067,10.823-0.03,16.199
					c-1.013,4.962-2.026,9.925-3.039,14.887c-1.165,5.708-2.943,12.221-8.246,14.631c-2.816,1.28-6.232,1.141-8.745,2.943
					C315.667,582.433,316.665,589.231,314.546,594.257z"/>
				<path style="fill:#3A3029;" d="M383.175,505.367c-0.169-5.833-1.307-11.683-2.759-16.932
					c-2.494-9.02-13.485-12.539-22.842-12.682c-20.209-0.308-40.132-8.383-59.413-0.274c-11.021,4.635-26.062,6.419-35.925,12.647
					c-4.119,2.601-7.305,6.485-9.722,10.714c-8.373,14.653-7.342,34.158,2.53,47.846c2.215,3.071,4.815,5.846,7.532,8.483
					c5.623,5.458,12.362,12.211,19.777,13.938c-0.188-6.537-7.276-26.79-2.56-32.418c7.485-8.931,25.637-6.967,35.621-5.424
					c10.892,1.683,20.91,8.774,31.673,9.811c7.745,0.746,17.337-3.564,23.648-7.896
					C380.624,526.393,383.481,515.907,383.175,505.367z"/>
			</g>
			<g>
				<polygon style="fill:#EACDB0;" points="330.41,719.247 341.632,726.416 353.059,723.708 354.863,725.838 352.331,728.165 
					362.459,728.633 368.547,734.168 367.266,745.043 359.314,753.09 348.651,750.672 339.111,741.838 323.324,732.689 				"/>
				<path style="fill:#6A8478;" d="M340.61,722.896l-65.075-39.374c1.625-13.589,1.913-25.93,1.574-39.453
					c-0.33-13.131,7.319-29.304,1.923-41.848c-12.182-28.318-41.149,37.548-44.879,45.757c-7.443,16.38-14.886,32.761-22.329,49.141
					l10.635,10.339l110.892,40.375L340.61,722.896z"/>
			</g>
		</g>
		<g>
			<g>
				<path style="fill:#8C9498;" d="M633.35,611.399c0.38,0.083,0.757,0.169,1.132,0.257c17.961,4.222,34.756,30.015,44.428,45.193
					c24.967,39.18,38.868,81.309,45.925,126.811c3.8,24.501,6.427,49.17,8.512,73.871c0.576,6.825,1.353,68.392,4.855,69.489
					c-35.923-11.247-72.319-21.605-109.678-26.216c-37.359-4.611-75.923-3.304-111.703,8.39
					c1.916-78.464,8.685-158.816,23.083-235.979c1.722-9.229,2.448-18.948,5.572-27.855c3.598-10.258,10.403-13.903,18.748-20.634
					c2.859-2.306,5.739-4.627,8.977-6.369C590.268,609.178,614.466,607.255,633.35,611.399z"/>
				<g>
					<polygon style="fill:#EBCEB1;" points="693.756,492.81 686.406,474.353 678.38,477.15 680.615,490.905 676.205,490.467 
						684.419,505.495 693.155,503.713 					"/>
					<polygon style="fill:#8C9498;" points="616.458,614.458 691.044,589.844 679.932,501.339 697.446,498.689 733.726,600.274 
						676.458,674.458 					"/>
				</g>
				<g>
					<polygon style="fill:#EBCEB1;" points="498.828,548.882 502.277,529.315 510.704,530.425 511.309,544.346 515.538,543.022 
						510.547,559.406 501.631,559.435 					"/>
					<polygon style="fill:#8C9498;" points="574.458,623.458 520.458,623.458 514.097,554.424 496.409,555.387 474.458,653.458 
						548.458,716.458 					"/>
				</g>
			</g>
			<g>
				<g>
					<path style="fill:#514943;" d="M571.638,572.263c-3.286,9.866,1.47,20.386,5.644,29.378c3.702,7.973,4.989,13.221-4.409,15.372
						c-5.295,1.212-14.691,3.474-19.336-0.58c-3.516-3.072-1.54-12.557,0.171-16.325c1.307-2.877,4.765-4.339,5.995-7.25
						c0.507-1.2,0.58-2.534,0.598-3.836c0.073-5.319-0.662-10.649-2.174-15.749c-1.027-3.463-2.418-6.865-2.728-10.464
						c-0.45-5.218,3.241-11.3,5.18-16.095c3.608-8.921,16.165-20.888,26.681-13.885c2.394,1.595,3.788,4.29,4.954,6.92
						c0.696,1.57,1.358,3.209,1.378,4.927c0.081,6.849-6.173,8.005-10.492,11.265C577.773,559.961,573.735,565.966,571.638,572.263z
						"/>
					<path style="fill:#EACDB0;" d="M591.638,610.761c-9.121-2.149-16.252-9.807-19.678-18.528
						c-3.427-8.721-3.606-18.392-2.658-27.713c3.154-31.021,41.742-29.03,54.81-5.254
						C635.499,579.987,618.156,617.008,591.638,610.761z"/>
					<path style="fill:#514943;" d="M621.363,573.87c0.391,4.849-2.152,10.241,0.512,14.312c1.187,1.813,3.178,2.9,4.862,4.266
						c4.598,3.729,6.982,10.006,6.018,15.847c9.711-0.375,19.422-0.749,29.133-1.123c1.464-0.057,3.001-0.134,4.254-0.893
						c2.679-1.623,2.82-5.388,2.646-8.515c-0.343-6.158-0.844-12.752-4.68-17.582c-1.778-2.24-4.166-3.937-5.937-6.182
						c-8.518-10.799-0.185-29.761-10.553-38.798c-4.627-4.032-11.337-4.331-17.008-6.678c-9.888-4.093-16.385-14.341-26.518-17.783
						c-19.136-6.502-37.674,16.832-26.332,33.882C587.01,558.526,619.786,554.341,621.363,573.87z"/>
				</g>
			</g>
			<g>
				<g>
					<polygon style="fill:#EBCEB1;" points="693.458,865.458 668.458,1012.458 675.458,1118.949 658.458,1123.949 644.458,1025.458 
						614.224,845.425 					"/>
				</g>
				<polygon style="fill:#514943;" points="658.458,1126.949 656.458,1137.949 660.458,1158.949 674.458,1157.949 677.458,1126.949 
					675.458,1121.949 				"/>
			</g>
			<g>
				<polygon style="fill:#EBCEB1;" points="556.458,859.458 562.458,984.458 592.02,1159.458 609.164,1159.458 603.458,997.458 
					627.458,848.458 				"/>
				<polygon style="fill:#514943;" points="592.338,1156.475 570.262,1170.353 572.871,1180.949 613.083,1173.007 610.001,1157.709 
									"/>
			</g>
			<polygon style="fill:#84A599;" points="552.458,873.458 551.458,1018.458 570.458,1116.458 616.458,1110.458 616.458,997.458 
				627.458,873.458 622.958,854.607 556.458,860.458 			"/>
			<polygon style="fill:#84A599;" points="632.458,1004.458 645.458,1107.458 685.458,1102.458 677.458,1004.458 693.756,879.458 
				685.458,845.458 618.239,854.607 			"/>
			<path style="fill:#FFFFFF;" d="M539.458,873.458c41.887,1.625,121.114-1.625,163,0c-6.211-74.699-33.442-159.548-59.561-229.558
				c-4.737-12.698-11.147-26.259-23.318-31.622c-13.041-5.746-38.876-1.841-44.772,12.857c-8.627,21.503-7.131,54.009-9.45,77.115
				C560.11,754.53,540.426,820.911,539.458,873.458z"/>
		</g>
		<g>
			<g>
				<polygon style="fill:#8C9498;" points="919.33,841.521 919.33,871.928 878.787,1003.692 888.923,1140.525 863.584,1145.593 
					823.041,978.353 824.592,929.148 843.312,828.797 				"/>
				<polygon style="fill:#8C9498;" points="887.169,877.524 927.907,1156.256 946.424,1156.256 958.119,1004.22 983.458,852.184 
									"/>
				<polygon style="fill:#363636;" points="867.779,1149.068 848.435,1169.54 854.023,1179.917 893.936,1160.759 886.584,1145.593 
									"/>
				<polygon style="fill:#363636;" points="928.25,1162.755 904.406,1177.745 907.224,1189.189 950.657,1180.61 947.328,1164.088 
									"/>
			</g>
			<g>
				<path style="fill:#EBCEB1;" d="M870.573,557.145c15.813,1.163,30.598-11.822,46.161-8.599
					c10.119,2.096,18.108,11.071,21.196,21.186c1.439,4.715,1.949,9.854,0.541,14.542c-0.914,3.043-2.6,5.785-4.585,8.222
					c-2.654,3.257-5.899,5.964-9.502,8.043c1.979,3.19,4.247,6.201,6.768,8.981c-7.293,2.793-14.585,5.585-21.878,8.378
					c-1.611-4.19-3.223-8.381-4.834-12.571c-2.193-0.122-4.378-0.434-6.52-0.989c-12.948-3.36-23.682-14.699-26.569-28.068
					C869.997,570.007,870.257,563.53,870.573,557.145z"/>
				<polygon style="fill:#4E4E4E;" points="874.565,561.916 923.459,556.106 932.948,593.454 946.756,582.497 939.641,521.385 
					870.638,519.899 840.76,537.426 842.025,554.991 868.741,572.974 				"/>
			</g>
			<path style="fill:#CBD9A4;" d="M891.544,622.681l58.075-23.038c0,0,32.377,52.695,55.84,134.816s-12.824,200.795-12.824,200.795
				s-161.942-33.059-188.509-38.273l52.412-164.24L891.544,622.681z"/>
			<g>
				<polygon style="fill:#EBCEB1;" points="774.389,759.184 753.44,758.239 753.453,749.267 767.943,746.738 765.98,742.492 
					783.809,745.485 785.054,754.813 				"/>
				<polygon style="fill:#CBD9A4;" points="905.634,648.957 870.217,722.912 778.112,742.447 781.528,760.83 895.383,761.868 
					959.057,681.124 				"/>
			</g>
			<g>
				<polygon style="fill:#EBCEB1;" points="781.09,687.474 764.78,675.315 769.202,667.81 782.048,673.554 782.564,668.934 
					795.369,681.114 791.779,689.6 				"/>
				<polygon style="fill:#CBD9A4;" points="889.727,625.679 868.048,696.59 789.424,672.363 784.564,690.161 879.799,744.366 
					941.547,647.466 				"/>
			</g>
		</g>
		<g>
			<path style="fill:#6A8478;" d="M442.458,214.52h-239v175.21h9.914c0.249,0.208,0.557,0.337,0.895,0.337h47.783l32.795,46.011
				c0.958,1.344,3.076,0.684,3.1-0.967l0.672-45.044h82.648c1.781,0,3.535-0.122,5.263-0.337h55.93V214.52z"/>
			<g>
				<rect x="225.246" y="272.169" style="fill:#FFFFF3;" width="184.663" height="6.451"/>
				<rect x="225.246" y="321.359" style="fill:#FFFFF3;" width="184.663" height="6.451"/>
			</g>
		</g>
	</g>
</g>
</svg>
